<?xml version="1.0" encoding="utf-8"?>
<!-- Generated by IcoMoon.io -->
<!DOCTYPE svg PUBLIC "-//W3C//DTD SVG 1.1//EN" "http://www.w3.org/Graphics/SVG/1.1/DTD/svg11.dtd">
<svg version="1.1" xmlns="http://www.w3.org/2000/svg" xmlns:xlink="http://www.w3.org/1999/xlink" width="1024" height="1024" viewBox="0 0 1024 1024">
<g id="icomoon-ignore">
</g>
<path d="M192 896h96v-288h-96v288zM576 576h-160c-17.696 0-32 14.304-32 32v96c0 17.664 14.304 32 32 32h160c17.664 0 32-14.336 32-32v-96c0-17.696-14.336-32-32-32zM448.992 703.008h-32v-94.016h32v94.016zM511.008 703.008h-32v-94.016h32v94.016zM576.992 703.008h-32v-94.016h32v94.016zM544 128h-96v416h96v-416zM800 128h-96v160h96v-160zM288 128h-96v256h96v-256zM704 896h96v-384h-96v384zM448 896h96v-128h-96v128zM320 416h-160c-17.696 0-32 14.304-32 32v96c0 17.664 14.304 32 32 32h160c17.664 0 32-14.336 32-32v-96c0-17.696-14.336-32-32-32zM192.992 543.008h-32v-94.016h32v94.016zM256.992 543.008h-32v-94.016h32v94.016zM320.992 543.008h-32v-94.016h32v94.016zM832 320h-160c-17.696 0-32 14.304-32 32v96c0 17.664 14.304 32 32 32h160c17.664 0 32-14.336 32-32v-96c0-17.696-14.336-32-32-32zM704.992 447.008h-32v-94.016h32v94.016zM767.008 447.008h-32v-94.016h32v94.016zM832.992 447.008h-32v-94.016h32v94.016z"></path>
</svg>
