<?xml version="1.0" encoding="utf-8"?>
<!-- Generator: Adobe Illustrator 16.2.0, SVG Export Plug-In . SVG Version: 6.00 Build 0)  -->
<!DOCTYPE svg PUBLIC "-//W3C//DTD SVG 1.1//EN" "http://www.w3.org/Graphics/SVG/1.1/DTD/svg11.dtd">
<svg version="1.1" id="Layer_1" xmlns="http://www.w3.org/2000/svg" xmlns:xlink="http://www.w3.org/1999/xlink" x="0px" y="0px"
	 width="772.913px" height="308.991px" viewBox="0 0 772.913 308.991" enable-background="new 0 0 772.913 308.991"
	 xml:space="preserve">
<g>
	<path fill-rule="evenodd" clip-rule="evenodd" fill="#F9B11D" d="M291.638,295.751c-3.659,0.271-7.318,0.543-10.977,0.814
		c-1.175-0.797-2.616-0.549-3.887-0.98c-2.974-0.262-5.808,0.957-8.773,0.809c-3.905,0.467-7.779,1.193-11.701,1.365
		c-1.715,0.074-4.338,0.863-3.64-2.631c1.301-0.285,2.59-0.65,3.905-0.838c2.679-0.381,6.004,0.102,2.528-4.322
		c-1.76-2.24,0.769-4.68,1.974-6.734c1.096-1.869,2.997-1.814,4.847-0.891c2.824,1.41,3.783,0.402,3.932-2.607
		c0.902-18.127,2.4-36.219,2.663-54.385c0.162-11.119,1.862-22.162,0.405-33.378c-0.593-4.563-1.98-5.733-6.08-5.028
		c-1.961,0.337-3.985,0.526-5.968,0.448c-2.153-0.084-4.967-0.329-4.838-3.127c0.134-2.901,1.468-6.77,4.698-6.643
		c11.345,0.446,22.635-0.473,33.949-0.566c7.14-0.059,14.285-0.047,21.415-0.354c5.136-0.221,10.213-1.071,15.363,0.28
		c1.61,0.423,3.532,0.472,5.355-0.335c3.786-1.674,7.914,0.622,7.255,4.432c-1.532,8.844,1.639,17.105,2.303,25.655
		c0.154,1.986,0.369,3.98,0.342,5.969c-0.025,1.809-0.801,3.342-2.873,3.412c-1.757,0.059-2.955-1.148-3.015-2.752
		c-0.289-7.756-6.27-13.502-7.219-21.064c-0.487-3.884-2.826-5.64-7.298-5.493c-11.816,0.388-23.655,0.231-35.481,0.067
		c-3.299-0.045-4.758,0.518-4.468,4.329c0.833,10.958,1.399,21.94,1.787,32.922c0.128,3.633,1.598,4.34,4.903,4.207
		c12.512-0.498,12.515-0.4,13.474-12.84c0.09-1.162,0.188-2.324,0.323-3.482c0.435-3.744,2.583-6.896,6.152-6.568
		c2.473,0.227,3.125,3.992,3.666,6.744c2.12,10.775-1.588,21.447-0.45,32.211c0.328,3.105,0.051,6.1,1.833,9.086
		c2.021,3.389-0.016,5.797-4.036,5.443c-5.104-0.451-7.333-2.914-7.191-7.947c0.037-1.332,0.097-2.664,0.107-3.998
		c0.061-7.6,0.058-7.533-7.608-7.367c-3.75,0.082-8.444-2.295-10.948,0.896c-2.202,2.805-0.704,7.41-0.773,11.209
		c-0.169,9.303-0.628,18.584-1.726,27.82c-0.272,2.293,0.797,2.553,2.524,2.43c3.322-0.234,6.64-0.523,9.964-0.709
		c9.136-0.514,18.262-0.93,27.428-0.354c8.864,0.559,12.56-2.66,13.95-11.533c0.98-6.246,1.886-12.506,2.785-18.766
		c0.246-1.717,0.492-3.439,2.63-3.662c2.442-0.256,3.23,1.654,3.483,3.445c0.463,3.262,1.28,6.734,0.625,9.838
		c-1.556,7.363,1.234,14.543,0.246,21.818c-0.152,1.121-0.783,3.043,1.258,3.139c2.116,0.1,2.049-1.85,2.068-3.285
		c0.074-5.328,0.04-10.66,0.047-15.99c0.003-2.328,0.602-3.74,3.279-4.713c3.637-1.322,7.246-3.752,10.512-0.484
		c2.195,2.197,0.807,5.688,0.253,8.521c-1.269,6.498,0.802,9.797,7.169,11.752c4.231,1.299,8.522,1.15,12.789,1.182
		c4.67,0.031,9.481-4.1,10.569-8.57c1.22-5.016-1.841-7.756-5.522-10.115c-4.562-2.922-9.625-4.652-14.903-5.463
		c-12.911-1.984-20.313-8.799-22.967-21.531c-0.751-3.607,0.582-6.648,2.833-9.184c10.124-11.408,22.969-15.273,38.021-11.375
		c1.192,0.309,2.156,1.27,3.702,0.385c4.56-2.611,7.576-1.338,8.784,3.805c0.987,4.203,0.961,8.713,2.41,12.715
		c1.112,3.074,1.51,5.924,0.826,8.9c-0.694,3.018-1.273,4.404-5.946,3.518c-10.274-1.945-8.231-11.141-11.57-16.891
		c-1.669-2.873-2.654-4.861-5.992-5.307c-6.258-0.834-11.994-0.463-16.014,5.396c-1.755,2.559-3.593,4.982-1.313,8.105
		c2.566,3.514,5.229,7.672,10.107,7.039c9.992-1.293,18.204,2.445,25.518,8.346c7.682,6.197,8.277,21.428,1.765,30.156
		c-0.053,0.633-0.051,1.262,0.165,1.871c4.765,0.014,9.529,0.029,14.295,0.043c0.833,1.051,0.887,2.123,0.1,3.221
		c-1.882,1.363-4.098,1.293-6.197,1.119c-7.551-0.627-14.732,0.785-21.711,3.527c-1.736,0.24-3.613-0.326-5.195,0.871
		c-4.329-0.002-8.658-0.006-12.987-0.008c-0.633-0.592-1.445-0.805-2.241-1.057c-1.9-0.602-3.902-0.91-5.644-1.945
		c-2.243-1.334-2.921,0.158-3.48,1.895c-0.368,0.631-1.016,0.877-1.621,1.182c-7.658,0.129-15.316,0.256-22.974,0.385
		c-0.335-0.451-0.367-0.922-0.104-1.412c2.55-1.971,5.753-0.682,9.256-1.695c-3.03-1.039-5.293-0.287-7.407,0.357
		c-8.396,2.563-17.041,1.5-25.558,1.736c-8.278,0.229-16.533,0.543-24.777,1.273c-0.49,0.043-0.962,0.197-1.455,0.223
		c0.43,0.531,1.196,0.338,1.688,0.785c0.305,0.242,0.442,0.51,0.43,0.809C291.756,295.593,291.712,295.751,291.638,295.751z"/>
	<path fill-rule="evenodd" clip-rule="evenodd" fill="#F9B11D" d="M700.641,294.782c-16.661,0.539-33.322,0.547-49.983-0.004
		c-0.222-0.203-0.295-0.406-0.219-0.607c0.076-0.199,0.151-0.301,0.227-0.301c13.759,0,27.517,0,41.622,0
		c-3.259-7.223-3.751-7.316-9.606-4.857c-6.874,2.887-15.662,2.703-18.994-7.887c-0.53-1.686-1.055-1.754-2.797-0.99
		c-6.222,2.73-12.426,5.979-18.988,7.342c-9.992,2.076-18.995-1.629-26.671-8.102c-2.18-1.84-3.152-4.881-2.652-7.785
		c1.26-7.324,3.385-14.244,10.08-18.74c9.408-6.318,19.729-10.291,30.887-11.945c5.951-0.881,9.238-6.582,6.157-12.02
		c-5.034-8.883-14.558-10.881-23.062-7.504c-4.033,1.602-5.3,4.752-4.036,8.945c0.476,1.58,1.037,3.232,1.013,4.844
		c-0.09,5.828-4.574,8.688-9.801,6.416c-9.428-4.096-10.271-5.045-4.917-14.066c5.346-9.01,13.043-15.77,24.406-16.615
		c2.767-0.205,5.56-1.537,8.23-1.266c8.676,0.877,17.169,12.498,18.124,21.111c1.125,10.146-0.669,20.248,0.823,30.305
		c1.271,8.564,4.693,14.689,14.212,16.826c4.583,1.029,8.648,3.348,13.541,1.469c2.051-0.787,3.035-1.684,3.721-3.957
		c2.996-9.939,0.799-20.268,2.659-30.279c0.815-4.391,1.471-8.861,1.146-13.406c-0.415-5.811-1.681-6.73-7.006-4.701
		c-5.514,2.1-6.242,1.574-5.519-4.191c0.212-1.688,0.065-3.199-0.435-4.863c-1.035-3.443,1.067-5.941,4.312-4.828
		c6.098,2.088,12.13,1.633,18.225,0.576c2.542-0.441,4.95-0.109,6.163,2.115c1.305,2.395-0.959,3.396-2.694,4.406
		c-1.002,0.584-1.329,1.725-0.795,2.6c1.652,2.713,1.238,5.756,1.57,9.527c2.396-3.168,4.365-5.744,6.307-8.344
		c5.695-7.619,13.684-9.643,22.594-8.963c6.104,0.467,10.143,4.832,10.548,10.078c0.654,8.459-5.736,12.555-10.525,13.527
		c-4.061,0.826-6.81-0.865-7.673-5.094c-0.299-1.463-0.279-3.029-0.795-4.402c-1.367-3.643-4.037-4.268-6.161-1.092
		c-5.91,8.84-12.023,17.738-15.662,27.709c-2.432,6.662-0.671,14.197-0.684,21.338c-0.006,2.951,2.636,1.975,4.219,1.832
		c4.755-0.426,9.299-0.262,13.347,2.73c2.429,1.795,4.528,4.176,3.307,7.057c-1.116,2.633-3.983,2.365-6.549,1.33
		c-0.883-0.355-1.968-0.305-2.957-0.283c-8.151,0.182-16.277,1.012-24.46,0.518c-3.26-0.195-6.544,0.646-10.984,2.586
		c3.28,0.451,5.213,0.719,7.146,0.984c0.243,0.195,0.33,0.396,0.262,0.604C700.792,294.677,700.717,294.782,700.641,294.782z"/>
	<path fill-rule="evenodd" clip-rule="evenodd" fill="#72BF48" d="M45.7,68.928C40.605,56.755,37.324,44,34.557,31.181
		c-1.912-8.854,7.161-18.908,16.31-19.001c3.798-0.039,7.707,0.323,11.376,1.249c3.109,0.784,5.019,0.02,6.88-2.303
		c1.347-1.68,3.124-3.01,4.528-4.65c4.369-5.102,9.774-7.293,16.457-6.203c0.818,0.134,1.678,0.253,2.49,0.151
		c12.687-1.579,21.411,4.216,27.613,14.757c1.343,2.283,2.569,2.976,5.475,1.44c6.68-3.529,19.923-0.38,23.864,5.082
		c4.809,6.664,4.398,19.495-2.538,24.619c-8.019,5.925-9.252,13.146-8.774,21.964c0.342,6.301-0.491,12.658-0.316,18.977
		c0.108,3.908-1.077,4.991-5.014,4.958c-22.989-0.193-45.983,0.031-68.971-0.207c-4.445-0.046-6.061,1.074-5.335,5.521
		c0.372,2.279,0.12,4.656,0.213,6.986c0.768,19.107,15.32,37.295,34.12,41.109c11.627,2.359,22.261-1.693,30.556-10.023
		c6.388-6.415,10.782-14.334,12.43-23.505c0.499-2.775,1.293-5.499,2.208-8.192c0.227,8.354,0.932,16.795-5.16,23.857
		c-0.971,1.126-1.714,2.457-2.5,3.731c-9.861,15.974-25.12,21.737-43.532,17.473c-11.383-2.636-19.294-9-25.331-18.626
		c-7.563-12.06-11.187-25.044-11.127-39.285c0.038-9.132-0.35-9.158,8.614-9.049c22.322,0.272,44.648,0.395,66.962,0.989
		c5.157,0.138,6.104-1.464,5.589-6.133c-0.837-7.607-0.978-15.289-1.604-22.923c-0.261-3.185,0.086-5.318,3.925-5.921
		c3.389-0.531,5.92-2.926,8.088-5.534c4.541-5.466,5.142-12.574,1.426-16.4c-4.797-4.939-13.729-5.3-19.184-0.774
		c-5.059,4.198-5.059,4.198-7.958-2.078C109.934,9.375,98.212,4.082,83.366,8.386c-5.318,1.542-8.723,5.427-11.393,9.941
		c-2.174,3.677-4.29,4.609-8.429,2.334c-9.69-5.324-22.087,2.053-23.026,13.353c-0.689,8.297,1.375,16.202,3.563,24.075
		c0.89,3.204,1.927,6.367,2.897,9.549C47.177,68.687,46.678,69.045,45.7,68.928z"/>
	<path fill-rule="evenodd" clip-rule="evenodd" fill="#F9B11D" d="M524.647,291.979c-6.372,0.227-12.696-0.283-18.991-1.24
		c-0.9-0.799-2.128-0.865-3.151-1.391c-1.449-0.723-2.996-0.959-4.589-1.158c-1.476-0.184-3.359-0.008-3.55-2.293
		c0.404,0.012,0.808,0.023,1.211,0.035c0.768-0.543,0.921-1.238,0.51-2.072c-5.484-4.25-6.563-10.658-8.574-16.752
		c-5.139-15.572-3.405-30.332,6.039-43.469c8.353-11.617,23.199-14.637,36.674-10.193c11.267,3.715,16.477,11.547,20.704,22.051
		c4.253,10.566,2.264,21.008,2.642,31.492c0.149,4.121-3.421,7.451-6.017,10.615c-2.96,3.609-6.613,6.553-11.06,8.311
		c-0.546,0.979-0.87,2.104-1.857,2.789c-2.682,0.412-5.363,0.824-8.045,1.238C526.31,290.97,523.73,289.808,524.647,291.979z"/>
	<path fill-rule="evenodd" clip-rule="evenodd" fill="#7EC34B" d="M268.986,109.402c1.261,11.06,0.912,18.578,3.763,25.746
		c4.24,10.659,13.596,17.17,25.151,17.006c9.486-0.134,20.479-11.839,19.943-21.236c-0.019-0.333-0.067-0.669-0.038-0.997
		c0.195-2.217-0.267-5.878,2.598-5.357c2.241,0.407,6.283,1.732,6.264,5.325c-0.03,5.615-1.801,11.183-0.488,16.874
		c0.184,0.797-0.554,2.021-1.275,1.82c-4.042-1.124-5.52,2.451-7.468,4.353c-10.018,9.773-25.773,12.232-38.05,5.446
		c-13.644-7.543-20.193-19.226-21.691-34.702c-1.376-14.218,1.923-27.259,8.302-39.443c3.519-6.72,10.459-10.457,18-12.391
		c9.185-2.355,17.97-1.775,26.516,2.733c5.325,2.81,5.335,2.521,6.469-3.927c0.483-2.751,0.561-6.806,5.099-5.526
		c3.446,0.972,5.947,4.147,5.169,7.572c-2.107,9.261-1.966,18.738-3.464,28.036c-0.716,4.439-2.691,6.077-7.058,5.263
		c-4.52-0.844-3.974-3.742-3.142-7.217c2.744-11.45-6.146-22.965-17.447-21.956c-10.672,0.952-18.3,5.064-22.076,15.543
		C271.636,99.098,268.164,105.517,268.986,109.402z"/>
	<path fill-rule="evenodd" clip-rule="evenodd" fill="#F9B11D" d="M585.635,291.675c-0.986-0.061-1.974-0.121-2.96-0.182
		c-1.589-1.008-3.222-1.604-5.027-0.521c-8.697,0.295-17.327-0.775-25.985-1.277c-0.218-0.236-0.285-0.467-0.204-0.695
		c0.08-0.225,0.158-0.336,0.233-0.336c0.984-0.004,1.981-0.113,2.948,0.012c4.005,0.52,7.133,0.822,5.796-5.256
		c-0.905-4.119,3.145-6.652,8.652-6.279c6.774,0.459,6.229,0.465,6.176-6.24c-0.145-18.268-0.191-36.541,2.369-54.727
		c1.317-9.357,1.811-18.84,0.487-28.297c-0.552-3.945-2.769-5.438-6.646-4.564c-0.972,0.219-1.971,0.434-2.959,0.442
		c-2.383,0.021-5.176,2.921-7.061-0.716c-1.789-3.452-1.684-7.065-0.049-10.577c1.14-2.45,3.146-2.497,5.5-1.963
		c5.24,1.189,10.579,1.152,15.909,0.834c6.055-0.361,9.188,2.472,9.892,8.599c1.628,14.182-0.957,28.186-1.679,42.26
		c-0.774,15.123-2.09,30.219-3.127,45.328c-0.09,1.316,0.214,2.656,0.2,3.984c-0.047,4.498,1.998,6.27,6.517,5.498
		c3.142-0.535,6.253,0.051,9.373,0.816c3.172,0.777,3.341,2.439,2.623,5.168c-2.029,7.715-8.075,7.111-13.939,7.016
		C590.333,290.573,587.623,289.604,585.635,291.675z"/>
	<path fill-rule="evenodd" clip-rule="evenodd" fill="#F9B11D" d="M469.615,288.177c-3.528,0.807-6.019,4.213-9.963,3.977
		c-5.819,2.492-11.425,0.992-16.862-1.18c-2.934-1.174-5.843-2.369-8.877-3.244c-1.829-2.367-6.053-0.08-7.241-3.703
		c1.371-0.014,2.742-0.025,4.113-0.037c0.051-0.402,0.277-0.59,0.681-0.566c-10.93-9.289-12.175-21.844-11.682-34.936
		c0.081-2.145,0.109-4.605,1.136-6.346c6.408-10.852,12.868-21.619,25.894-26.121c8.178-2.828,16.019-2.32,23.896,0.576
		c8.082,2.971,12.638,16.119,5.775,23.742c-4.798,5.328-14.103,5.145-16.382-0.555c-1.12-2.799-0.985-5.479,1.153-7.918
		c1.782-2.031,4.703-4.016,2.653-7.174c-2.4-3.699-6.535-2.67-9.48-1.502c-8.11,3.213-14.826,8.178-17.082,17.402
		c-2.825,11.555-3.812,22.74,5.112,32.445c7.403,8.051,14.04,8.93,23.186,2.924c3.063-2.01,6.162-3.965,9.174-6.049
		c2.122-1.469,4.201-2.479,5.913,0.318c1.542,2.521,1.797,4.922-1.209,6.857c-2.663,1.713-4.146,4.488-6.578,7.514
		c4.176,0.23,7.434,0.41,10.692,0.59c0.25,0.561,0.115,1.002-0.401,1.33c-3.708,1.547-7.684,0.209-11.457,1.053
		C471.074,287.833,470.345,288.009,469.615,288.177z"/>
	<path fill-rule="evenodd" clip-rule="evenodd" fill="#72BF48" d="M166.938,246.767c-3.412-2.008-6.843-3.982-10.231-6.029
		c-4.604-2.779-7.432-6.943-9.159-11.943c-0.316-0.916-1.11-1.967-0.102-2.719c2.472-1.842,2.754-5.99,3.953-6.871
		c3.488-2.564,6.741-6.42,11.424-6.814c3.919-0.332,7.915,0.258,11.877,0.441c4.995,0.236,2.577,4.232,3.362,6.604
		c-0.026,2.656,0.25,5.342-0.556,7.939c-0.211,0.707-0.474,1.402-0.943,2c0.651-0.303,0.636-0.988,0.877-1.539
		c1.851-5.563,5.361-9.906,9.952-13.391c1.622-1.232,3.611-2.025,5.597-0.963c2.2,1.178,1.711,3.352,1.474,5.334
		c-0.786,6.57-2.46,12.742-7.729,17.318c-2.094,1.818-1.617,3.176,0.572,4.658c8.114,5.5,14.505,4.26,22.094-1.586
		c11.923-9.188,12.294-20.09,7.624-32.809c-4.496-12.243-11.744-22.634-20.413-32.179c-1.887-2.077-4.292-3.706-5.536-6.353
		c0.027-3.469,0.416-6.795,3.605-8.996c9.175,4.948,16.327,11.802,21.139,21.212c4.239,8.288,9.021,16.286,12.055,25.16
		c1.514,4.43,1.768,8.777,0.152,13.168c-1.435,3.896-2.84,7.814-4.51,11.611c-7.055,16.049-20.758,21.492-36.917,22.83
		c-6.272,0.52-11.431-3.139-17.098-4.893C168.228,248.46,167.483,247.827,166.938,246.767z"/>
	<path fill-rule="evenodd" clip-rule="evenodd" fill="#7EC34B" d="M345.528,160.708c-3.976,0.212-7.981-0.409-11.906,0.843
		c-2.624,0.837-5.136-0.876-4.54-2.878c0.678-2.277-1.812-7.339,3.867-6.725c3.146,0.341,5.405,0.058,5.007-3.894
		c-2.026-20.118,2.237-40.145,0.883-60.267c-0.245-3.649-0.014-6.574-4.979-4.188c-1.636,0.786-3.453,0.453-4.544-1.011
		c-1.804-2.423-0.024-5.148-0.053-7.721c-0.018-1.69,2.445-1.146,3.833-0.864c4.157,0.848,8.305,0.069,12.455,0.105
		c3.193,0.027,4.275,1.037,3.542,4.625c-2.016,9.856-1.032,19.858-0.557,29.813c0.125,2.601,1.147,2.813,3.014,1.26
		c0.894-0.743,1.916-1.328,2.83-2.049c9.096-7.169,17.379-7.077,26.483,0.354c2.955,2.413,4.671,5.271,4.729,9.392
		c0.148,10.564,0.481,21.127-0.88,31.631c-0.368,2.843,0.931,3.134,3.074,2.861c2.9-0.368,5.55-0.352,7.557,2.43
		c2.15,2.979,1.74,4.938-1.84,5.879c-4.606,1.212-9.262,0.36-13.901,0.086c-2.729-0.162-5.405-1.057-8.11,0.937
		c-1.823,1.343-3.669-0.004-3.926-2.177c-0.208-1.759-3.819-4.113,0.661-5.423c1.512-0.441,2.485-2.355,4.44-1.749
		c4.319,1.34,4.934-0.834,4.287-4.4c-1.181-6.516,0.42-12.934,0.798-19.394c0.592-10.15-3.586-15.85-11.861-16.15
		c-8.396-0.306-16.075,6.933-16.388,15.387c-0.24,6.486-0.511,12.973-0.849,19.455c-0.192,3.701,0.707,5.918,5.1,4.746
		c3.117-0.831,4.553,0.791,5.12,3.799c0.623,3.31-1.164,4.867-3.879,5.198C351.883,160.999,348.688,160.708,345.528,160.708z"/>
	<path fill-rule="evenodd" clip-rule="evenodd" fill="#7EC34B" d="M424.708,100.014c10.302-0.412,16.18,9.063,19.78,18.183
		c1.418,3.593,0.268,7.814,3.042,11.272c1.371,1.711-3.447,5.896-6.654,5.479c-9.704-1.257-19.355,1.55-29.054,0.211
		c-2.638-0.364-3.526,0.923-3.064,3.585c0.919,5.303,3.299,9.873,7.32,13.272c3.298,2.787,7.22,3.775,11.604,1.746
		c4.933-2.283,8.716-6.063,12.955-9.249c1.648-1.239,3.426-2.831,5.223-0.953c1.677,1.752,0.086,3.542-0.884,5.311
		c-4.749,8.665-11.847,13.461-21.794,14.35c-6.576,0.587-11.386-3.219-16.245-6.287c-6.613-4.176-9.094-11.13-9.396-18.787
		c-0.103-2.591-0.554-4.915-2.577-6.731c-2.424-2.177-1.679-3.868,1.128-4.495c2.478-0.555,2.759-2.245,2.719-4.07
		C398.567,111.85,412.932,99.313,424.708,100.014z"/>
	<path fill-rule="evenodd" clip-rule="evenodd" fill="#72BF48" d="M52.536,141.751c-8.198,1.624-16.165,3.994-23.402,8.248
		c-13.803,8.113-21.317,20.09-21.707,36.28c-0.255,10.557,0.919,20.932,4.263,30.973c2.54,7.629,6.833,14.018,13.91,18.236
		c3.598,2.145,6.864,2.021,9.871-1.182c4.488-4.785,8.84-9.566,8.404-16.84c-0.087-1.449,0.368-2.967,0.755-4.404
		c0.652-2.42,1.75-2.512,3.345-0.6c5.126,6.15,5.875,14.404,1.86,21.492c-3.687,6.512-3.262,10.621,2.784,14.598
		c7.855,5.166,16.178,9.621,24.299,14.383c3.587,3.262,4.965,7.223,3.791,11.99c-20.627-13.318-42.637-24.488-61.932-39.881
		c-5.084-4.057-8.689-9.045-10.569-15.336c-1.567-5.248-3.258-10.471-5.19-15.594c-5.496-14.577-3.076-27.993,3.931-41.679
		c6.115-11.944,15.34-17.666,27.984-19.498c5.919-0.858,11.789-2.04,17.782-2.317C52.977,141.049,52.917,141.426,52.536,141.751z"/>
	<path fill-rule="evenodd" clip-rule="evenodd" fill="#7EC34B" d="M508.431,140.907c0,1.377,0,1.877-0.001,2.376
		c-0.003,10.057-0.003,10.052,10.231,9.857c2.42-0.046,4.776,0.982,4.772,3.349c-0.005,2.794-2.68,4.729-5.188,4.146
		c-7.864-1.833-15.514-0.766-23.235,0.559c-3.572,0.612-4.773-2.157-5.199-4.71c-0.547-3.281,2.065-4.016,4.559-3.477
		c5.104,1.104,5.644-1.489,5.635-5.646c-0.021-10.744,0.296-21.489,0.54-32.233c0.087-3.829-2.154-2.563-3.877-1.723
		c-1.222,0.597-2.296,1.769-3.345,0.12c-1.317-2.068-3.101-4.147-2.395-6.824c0.433-1.64,2.177-1.953,3.688-2.022
		c1.151-0.053,2.313,0.251,3.476,0.322c1.816,0.111,2.901-0.525,2.557-2.604c-1.284-7.732,1.231-15.047,2.798-22.396
		c1.531-7.184,13.392-12.354,21.46-9.761c2.665,0.856,5.593,1.571,7.75,3.208c6.715,5.096,4.766,16.836-3.079,20.1
		c-2.688,1.119-4.29,0.087-4.784-2.479c-0.269-1.392,0.146-2.954,0.425-4.406c0.653-3.396,0.332-6.742-3.204-7.978
		c-3.2-1.117-5.911,0.665-8.109,3.337c-5.154,6.27-3.174,13.613-3.388,20.628c-0.045,1.49,1.138,1.876,2.406,1.891
		c1.998,0.022,4.016-0.169,5.988,0.058c1.823,0.209,5.246-1.644,4.955,1.879c-0.241,2.913-0.91,6.987-5.721,6.615
		c-1.156-0.089-2.296-0.384-3.451-0.503c-2.489-0.255-4.227,0.339-4.221,3.38C510.489,124.625,507.659,133.062,508.431,140.907z"/>
	<path fill-rule="evenodd" clip-rule="evenodd" fill="#7EC34B" d="M468.64,140.833c0,2.51,0,4.175,0,5.839
		c0.004,6.897,0.94,7.751,7.729,6.986c0.657-0.074,1.29-0.361,1.947-0.427c2.807-0.282,5.526,0.628,5.415,3.597
		c-0.1,2.644-2.876,4.428-5.479,3.803c-7.508-1.803-14.864-0.948-22.22,0.495c-4.15,0.814-5.705-1.932-5.99-4.878
		c-0.347-3.589,2.824-3.699,5.342-3.208c4.295,0.837,5.101-1.301,5.098-4.911c-0.006-10.891,0.088-21.782,0.281-32.672
		c0.06-3.359-1.664-3.257-3.733-2.131c-1.516,0.825-2.771,1.399-3.757-0.39c-1.095-1.985-2.947-3.939-1.988-6.392
		c0.683-1.745,2.658-2.025,4.331-1.725c4.432,0.799,5.025-0.37,5.071-5.145c0.073-7.45,1.076-15.189,3.982-22.246
		c2.277-5.532,14.103-9.325,20.8-7.116c2.65,0.874,5.607,1.579,7.693,3.267c6.468,5.231,4.617,16.249-3.016,19.843
		c-2.909,1.37-4.438,0.195-5.176-2.533c-0.203-0.752-0.06-1.66,0.132-2.446c0.95-3.897,1.694-8.226-3.029-9.718
		c-4.457-1.407-7.312,1.977-9.418,5.607c-3.421,5.895-1.672,12.355-1.958,18.587c-0.071,1.535,1.247,1.794,2.478,1.795
		c1.996,0.002,3.999-0.188,5.985-0.063c1.883,0.117,5.235-1.574,5.057,1.754c-0.144,2.684-0.703,6.685-5.188,6.659
		c-1.482-0.009-2.96-0.378-4.446-0.487c-2.348-0.174-3.98,0.658-3.867,3.31C471.087,124.573,467.731,132.955,468.64,140.833z"/>
	<path fill-rule="evenodd" clip-rule="evenodd" fill="#F9B425" d="M80.71,274.927c-0.608-4.203-2.155-8.109-3.792-11.988
		c-0.508-10.285,5.945-18.684,16.112-20.049c17.624-2.369,34.034,1.883,49.551,10.113c2.38,1.262,4.29,3.209,5.809,5.412
		c3.243,4.705,0.29,12.051-5.282,11.969c-16.487-0.242-32.274-3.975-47.145-11.25c-0.371-0.182-0.564-0.723-1.031-1.355
		c1.911-1.02,3.268,0.189,4.656,0.709c10.012,3.76,20.259,6.576,30.915,7.742c3.53,0.387,6.966,0.018,10.258-1.479
		c2.418-1.098,2.762-2.674,1.331-4.758c-1.742-2.539-4.029-4.363-6.941-5.477c-9.505-3.637-19.257-6.486-29.192-8.578
		c-8.859-1.865-15.929,2.197-22.028,8.088c-2.809,2.711-1.884,6.277-0.634,9.389c4.695,11.682,11.998,20.26,24.253,25.537
		c16.576,7.139,29.432,3.318,41.585-8.717c9.504-9.412,14.685-20.814,17.803-33.469c0.854,0.396,1.709,0.795,2.563,1.191
		c-2.389,13.285-9.603,24.359-16.516,35.516c-6.551,10.572-17.078,13.723-28.711,14.17c-6.848,0.262-13.61-0.777-20.288-2.256
		c-11.077-2.451-17.568-10.154-22.409-19.713c-0.357-0.201-0.676-0.453-0.949-0.76L80.71,274.927z"/>
	<path fill-rule="evenodd" clip-rule="evenodd" fill="#F9B11D" d="M176.797,219.62c-0.776-2.24,1.736-5.496-2.098-6.789
		c3.259-16.737,7.262-33.299,11.595-49.785c-0.157-2.819,0.154-5.484,2.454-7.5c5.986-17.097,11.475-34.368,18.098-51.242
		c3.235-8.243,8.115-15.152,15.246-20.565c6.368-4.834,13.263-5.528,20.806-4.052c3.396,0.664,3.035,1.916,1.047,3.715
		c-4.218,3.814-9.083,6.746-13.863,9.767c-3.729,2.356-6.866,5.243-9.292,8.911c-11.629,17.584-21.335,36.054-26.111,56.79
		c-1.322,2.905-2.411,5.884-2.814,9.074c1.002,1.962,0.373,3.861-0.167,5.792c-3.884,13.887-8.035,27.699-11.783,41.625
		C179.456,217.069,179.534,219.456,176.797,219.62z"/>
	<path fill-rule="evenodd" clip-rule="evenodd" fill="#72BF48" d="M81.684,115.531c10.026,5.854,20.474,3.102,30.801,2.124
		c0.493-0.046,0.979-0.332,1.459-0.309c2.217,0.104,5.276-2.177,6.362-0.208c1.286,2.332-1.074,5.017-2.749,7.029
		c-5.374,6.46-12.558,9.728-20.723,10.823c-5.159,0.692-9.083-1.644-11.635-6.087C82.855,124.823,81.385,120.455,81.684,115.531z"/>
	<path fill-rule="evenodd" clip-rule="evenodd" fill="#F9B425" d="M520.643,298.104c14.609,1.045,29.237,1.887,43.826,3.174
		c46.147,4.07,92.335,6.994,138.7,5.766c1.16-0.031,2.324,0.088,3.487,0.139c0.211,0.215,0.279,0.428,0.205,0.639
		s-0.146,0.316-0.219,0.316c-1.72,0.879-3.587,0.564-5.394,0.611c-43.457,1.088-86.76-1.627-130.028-5.256
		c-15.24-1.277-30.493-2.42-45.739-3.643c-1.637-0.131-3.349,0.107-4.852-0.834c-0.341-0.207-0.452-0.41-0.335-0.613
		C520.411,298.204,520.526,298.104,520.643,298.104z"/>
	<path fill-rule="evenodd" clip-rule="evenodd" fill="#72BF48" d="M100.844,165.46c9.844-3.145,18.508-5.867,27.135-8.704
		c1.938-0.638,2.668-0.315,2.72,1.828c0.125,5.146,0.383,10.288,0.669,15.428c0.108,1.945-0.27,2.857-2.466,2.02
		C119.947,172.614,110.966,169.266,100.844,165.46z"/>
	<path fill-rule="evenodd" clip-rule="evenodd" fill="#72BF48" d="M67.752,154.905c9.55,3.295,18.628,6.428,27.5,9.489
		c0.552,1.095,0.053,1.431-0.61,1.688c-7.9,3.079-15.824,6.099-23.685,9.274c-2.446,0.989-3.285,0.489-3.238-2.169
		C67.824,167.377,67.752,161.563,67.752,154.905z"/>
	<path fill-rule="evenodd" clip-rule="evenodd" fill="#F9B425" d="M582.642,296.136c14.938,1.074,29.876,2.166,44.815,3.215
		c38.287,2.691,76.548,1.711,114.797-0.865c1.448-0.098,2.938-0.682,4.38,0.109c0.139,1.764-1.223,1.248-2.039,1.309
		c-53.272,3.906-106.483,3.063-159.633-2.152c-0.797-0.078-1.563-0.459-2.344-0.699c-0.334-0.211-0.441-0.418-0.323-0.619
		C582.411,296.235,582.526,296.136,582.642,296.136z"/>
	<path fill-rule="evenodd" clip-rule="evenodd" fill="#72BF48" d="M188.748,155.546c-0.594,2.573-0.918,5.235-2.456,7.499
		c-15.397-8.389-30.761-16.854-47.597-22.159c-0.412-0.547-0.485-1.136-0.219-1.767
		C155.794,142.877,172.726,147.819,188.748,155.546z"/>
	<path fill-rule="evenodd" clip-rule="evenodd" fill="#FCFDFB" d="M433.655,286.735c4.076-0.439,7.046,2.227,10.502,3.605
		c4.937,1.971,10.239,1.957,15.495,1.813c-0.001,0.527-0.001,1.057-0.001,1.586c-0.648,0.922-1.626,1.232-2.635,1.068
		c-6.273-1.016-12.685-0.197-18.891-1.035c-8.486-1.143-16.933-0.719-25.391-0.744c-5.994-0.018-11.951-0.68-17.94-0.615
		c-0.811,0.008-2.207,0.404-1.817-1.361c8.985-5.059,18.845-4.627,28.646-4.561C425.667,284.909,429.66,285.872,433.655,286.735z"/>
	<path fill-rule="evenodd" clip-rule="evenodd" fill="#F9B425" d="M392.977,291.052c0.438,0.213,0.875,0.613,1.311,0.611
		c21.813-0.068,43.585,1.088,65.363,2.076c16.399,1.086,32.799,2.162,49.196,3.271c1.959,0.133,4.009-0.24,5.834,0.848
		c0.333,0.215,0.44,0.424,0.322,0.627c-0.116,0.199-0.231,0.299-0.348,0.299c-15.593-0.961-31.188-1.869-46.776-2.893
		c-26.386-1.729-52.813-2.369-79.236-3.143C389.273,290.103,391.361,291.181,392.977,291.052z"/>
	<path fill-rule="evenodd" clip-rule="evenodd" fill="#F9B425" d="M252.661,295.128c0.573,2.502,2.26,1.648,3.895,1.406
		c4.04-0.598,8.102-1.045,12.154-1.555c3.092,1.418,6.174-0.447,9.263-0.027c1.237-0.031,2.479-0.068,2.689,1.613
		c-21.8,2.217-43.647,3.992-65.614,7.477C217.606,300.312,238.1,295.63,252.661,295.128z"/>
	<path fill-rule="evenodd" clip-rule="evenodd" fill="#F9B425" d="M585.635,291.675c1.349-4.752,4.307-2.74,7.04-1.674
		c6.85,1.998,13.948,1.381,20.93,1.877c12.339,0.877,24.706,1.35,37.061,1.992c0,0.303-0.002,0.605-0.008,0.908
		C628.941,294.644,607.28,293.333,585.635,291.675z"/>
	<path fill-rule="evenodd" clip-rule="evenodd" fill="#F9B425" d="M725.626,292.89c12.579-0.969,25.157-1.941,37.737-2.898
		c3.17-0.24,6.344-0.432,9.549,0.02c-15.703,2.107-31.443,3.486-47.271,3.789c-0.345-0.197-0.462-0.396-0.353-0.602
		C725.401,292.993,725.512,292.89,725.626,292.89z"/>
	<path fill-rule="evenodd" clip-rule="evenodd" fill="#F9B425" d="M524.647,291.979c-1.117-2.363,0.61-2.014,1.945-2.037
		c3.516,2.277,7.58,1.541,11.407,2c9.539,1.141,19.195,1.152,28.669,2.957c0.341,0.211,0.451,0.416,0.335,0.621
		c-0.116,0.201-0.231,0.303-0.349,0.303C552.627,294.808,538.576,294.065,524.647,291.979z"/>
	<path fill-rule="evenodd" clip-rule="evenodd" fill="#F9B425" d="M291.638,295.751c-0.009-0.303-0.013-0.607-0.011-0.912
		c0.207-1.887,1.71-1.742,2.982-1.832c11.022-0.795,22.053-1.334,33.11-1.105c2.473,0.053,4.92-0.443,7.376-0.711
		c1.627-0.178,3.319-0.586,4.562,1.008c0.013,0.334,0.025,0.67,0.039,1.004c-6.869,1.355-13.855,0.596-20.778,1.145
		C309.844,295.063,300.733,295.306,291.638,295.751z"/>
	<path fill-rule="evenodd" clip-rule="evenodd" fill="#F9B425" d="M725.652,306.804c10.643-1.416,21.355-1.459,32.089-1.352
		c-10.649,1.434-21.336,2.297-32.101,2.129l-0.284-0.393L725.652,306.804z"/>
	<path fill-rule="evenodd" clip-rule="evenodd" fill="#72BF48" d="M91.914,101.813c-0.197,2.571-1.375,4.314-3.944,4.378
		c-2.589,0.063-3.998-1.721-4.095-4.108c-0.108-2.67,1.401-4.594,4.17-4.541C90.565,97.589,91.734,99.457,91.914,101.813z"/>
	<path fill-rule="evenodd" clip-rule="evenodd" fill="#72BF48" d="M115.964,101.767c-0.121,2.353-1.126,4.237-3.72,4.399
		c-2.871,0.18-4.297-1.743-4.32-4.354c-0.021-2.409,1.41-4.222,3.952-4.271C114.436,97.491,115.673,99.236,115.964,101.767z"/>
	<path fill-rule="evenodd" clip-rule="evenodd" fill="#F9B425" d="M469.615,288.177c0.3-0.395,0.6-0.791,0.899-1.188
		c11.156-0.441,22.293-0.57,33.269,1.998c1.166,0.004,1.783,0.596,1.873,1.752C493.616,290.255,481.588,289.601,469.615,288.177z"/>
	<path fill-rule="evenodd" clip-rule="evenodd" fill="#FCFDFB" d="M503.783,288.987c-11.089-0.666-22.179-1.332-33.269-1.998
		c4.233-2.318,8.776,0.004,13.105-0.873c3.373-0.307,6.754-0.078,10.131-0.156c0.206-0.01,0.412-0.029,0.616-0.063
		C497.056,288.296,501.353,285.796,503.783,288.987z"/>
	<path fill-rule="evenodd" clip-rule="evenodd" fill="#F9B425" d="M551.692,288.663c-0.01,0.344-0.02,0.688-0.029,1.031
		c-5.676-0.33-11.351-0.66-17.025-0.99c-0.044-1.373,0.07-2.639,1.857-2.789c0.62,2.619,2.842,1.662,4.435,1.875
		C544.497,288.265,548.168,287.532,551.692,288.663z"/>
	<path fill-rule="evenodd" clip-rule="evenodd" fill="#F9B425" d="M433.655,286.735c-4.011-0.08-8.021-0.162-12.032-0.244
		c0.008-0.826,0.016-1.652,0.024-2.48c1.675,0.006,3.35,0.01,5.024,0.016C428.412,286.444,432.426,282.999,433.655,286.735z"/>
	<path fill-rule="evenodd" clip-rule="evenodd" fill="#F9B425" d="M700.641,294.782c-0.001-0.309-0.016-0.615-0.042-0.922
		c4.642-1.125,9.357-0.754,14.058-0.701c0.342,0.195,0.461,0.398,0.358,0.611c-0.104,0.217-0.212,0.324-0.322,0.324
		C710.057,295.321,705.339,294.854,700.641,294.782z"/>
	<path fill-rule="evenodd" clip-rule="evenodd" fill="#F9B11D" d="M725.652,306.804c-0.034,0.258-0.038,0.518-0.012,0.777
		c-6.317,0.684-12.655,0.693-18.997,0.557c0.023-0.318,0.027-0.637,0.014-0.955C712.988,307.056,719.32,306.929,725.652,306.804z"/>
	<path fill-rule="evenodd" clip-rule="evenodd" fill="#F9B425" d="M201.917,304.663c3.05-0.564,6.101-1.129,9.151-1.693
		c0.103,0.42,0.206,0.838,0.308,1.256c-3.028,0.635-6.057,1.27-9.085,1.904C202.167,305.642,202.042,305.151,201.917,304.663z"/>
	<path fill-rule="evenodd" clip-rule="evenodd" fill="#F9B425" d="M493.75,285.96c-3.354,1.494-6.737,1.143-10.131,0.156
		c0.002-0.309,0.008-0.615,0.018-0.924C487.03,285.157,490.46,284.636,493.75,285.96z"/>
	<path fill-rule="evenodd" clip-rule="evenodd" fill="#F9B425" d="M577.648,290.972c-0.289-0.906-0.803-2.365,0.832-1.816
		c1.439,0.484,4.501-1.342,4.195,2.338C580.948,291.815,579.25,291.851,577.648,290.972z"/>
	<path fill-rule="evenodd" clip-rule="evenodd" fill="#F9B425" d="M362.669,292.815c0.411-0.322,0.822-0.643,1.233-0.963
		c3.292-2.496,6.938-0.342,10.385-0.791c0.957,0.152,1.279,0.82,1.368,1.68C371.328,292.767,366.999,292.79,362.669,292.815z"/>
	<path fill-rule="evenodd" clip-rule="evenodd" fill="#ADD88C" d="M52.536,141.751c0.06-0.375,0.119-0.751,0.179-1.128
		c2.542-1.382,5.239-0.46,7.868-0.535c0.338,0.278,0.417,0.469,0.239,0.572c-0.1,0.058-0.253,0.088-0.462,0.088
		C57.752,141.083,55.144,141.417,52.536,141.751z"/>
	<path fill-rule="evenodd" clip-rule="evenodd" fill="#F9B11D" d="M714.693,294.095c-0.013-0.311-0.024-0.623-0.036-0.936
		c3.656-0.09,7.313-0.18,10.97-0.27c0.005,0.303,0.01,0.607,0.016,0.91C721.993,293.897,718.343,293.997,714.693,294.095z"/>
	<path fill-rule="evenodd" clip-rule="evenodd" fill="#9AD073" d="M45.7,68.928c0.426-0.43,0.852-0.859,1.278-1.29
		c1.396,1.119,0.782,3.005,1.653,4.324l0.02-0.021C47.368,71.231,45.757,70.84,45.7,68.928z"/>
	<path fill-rule="evenodd" clip-rule="evenodd" fill="#F9B425" d="M572.64,295.206c1.402-0.135,2.817-0.35,4.055,0.611
		c0.324,0.221,0.427,0.434,0.308,0.635c-0.116,0.199-0.23,0.299-0.346,0.299c-1.403,0.115-2.826,0.373-4.074-0.586
		c-0.312-0.232-0.406-0.451-0.285-0.658C572.414,295.308,572.528,295.206,572.64,295.206z"/>
	<path fill-rule="evenodd" clip-rule="evenodd" fill="#E9F4E1" d="M60.36,140.749c0.071-0.222,0.146-0.442,0.225-0.661
		c0.876-1.296,1.976-1.42,3.324-0.639C63.238,141.432,61.71,140.848,60.36,140.749z"/>
	<path fill-rule="evenodd" clip-rule="evenodd" fill="#F9B11D" d="M572.64,295.206c-0.018,0.32-0.037,0.639-0.058,0.959
		c-1.977-0.113-3.952-0.229-5.928-0.342c0.004-0.309,0.008-0.615,0.014-0.924C568.659,295.001,570.65,295.104,572.64,295.206z"/>
	<path fill-rule="evenodd" clip-rule="evenodd" fill="#F9B11D" d="M576.657,296.751c0.013-0.313,0.025-0.623,0.038-0.934
		c1.982,0.107,3.965,0.213,5.947,0.318c-0.008,0.307-0.016,0.611-0.023,0.916C580.631,296.952,578.644,296.851,576.657,296.751z"/>
	<path fill-rule="evenodd" clip-rule="evenodd" fill="#F9B11D" d="M514.656,298.784c0.008-0.309,0.017-0.617,0.025-0.926
		c1.987,0.082,3.975,0.164,5.962,0.246c-0.005,0.305-0.009,0.609-0.013,0.912C518.639,298.94,516.647,298.862,514.656,298.784z"/>
	<path fill-rule="evenodd" clip-rule="evenodd" fill="#ADD88C" d="M138.476,139.12c0.073,0.589,0.146,1.178,0.219,1.767
		c-1.061-0.197-2.54-0.177-2.328-1.663C136.47,138.506,137.723,138.763,138.476,139.12z"/>
	<path fill-rule="evenodd" clip-rule="evenodd" fill="#F9B425" d="M496.086,283.86c0.408,0.369,1.158,0.738,1.156,1.105
		c-0.005,1.006-0.944,0.902-1.666,0.967C496.124,285.335,496.424,284.677,496.086,283.86z"/>
	<path fill-rule="evenodd" clip-rule="evenodd" fill="#F9B425" d="M407.352,283.968c-0.696-0.568-0.845-1.186-0.163-1.873
		C407.242,282.72,407.297,283.345,407.352,283.968z"/>
	<path fill-rule="evenodd" clip-rule="evenodd" fill="#F9B425" d="M431.465,283.423c-0.112,0.326-0.34,0.514-0.682,0.564
		C430.946,283.72,431.172,283.532,431.465,283.423z"/>
	<path fill-rule="evenodd" clip-rule="evenodd" fill="#72BF48" d="M80.628,274.915c0.317,0.254,0.634,0.508,0.95,0.76
		C81.261,275.421,80.945,275.167,80.628,274.915z"/>
	<polygon fill-rule="evenodd" clip-rule="evenodd" fill="#9AD073" points="48.631,71.962 48.749,72.059 48.651,71.941 	"/>
	<path fill-rule="evenodd" clip-rule="evenodd" fill="#FCFDFB" d="M339.657,292.198c-16.025,0.594-32.082,0.627-48.03,2.641
		c-2.465,0-4.93,0-7.365,0c-0.314-1.242,0.387-1.678,1.207-1.744c8.575-0.697,17.063-2.086,25.752-1.877
		c11.115,0.268,22.329,0.688,33.178-2.811c1.383-0.445,2.944-0.438,4.425-0.449c1.565-0.014,2.556,1.115,2.652,2.475
		c0.165,2.309-1.824,1.326-2.881,1.412C345.625,292.083,342.637,292.095,339.657,292.198z"/>
	<path fill-rule="evenodd" clip-rule="evenodd" fill="#FCFDFB" d="M374.288,291.062c-3.378,1.357-6.953,0.133-10.385,0.791
		c-0.426-3.357-0.287-5.787,4.115-3.227C369.932,289.741,372.187,290.269,374.288,291.062z"/>
	<path fill-rule="evenodd" clip-rule="evenodd" fill="#F9B425" d="M281.939,265.774c-0.168-3.699-0.734-7.436,0.16-11.357
		C283.998,257.21,283.998,257.21,281.939,265.774z"/>
	<path fill-rule="evenodd" clip-rule="evenodd" fill="#F9B425" d="M271.784,291.983c-3.182,0.412-6.152,2.883-10.445,1.082
		C265.266,291.329,268.569,292.087,271.784,291.983z"/>
	<path fill-rule="evenodd" clip-rule="evenodd" fill="#FCFDFB" d="M277.972,294.952c-3.084,1.193-6.17,1.801-9.263,0.027
		C271.8,295.905,274.879,293.056,277.972,294.952z"/>
	<path fill-rule="evenodd" clip-rule="evenodd" fill="#FCFDFB" d="M303.22,182.184c0.898-0.926,1.7-0.079,2.514,0.054
		c-0.352,1.123-1.175,0.256-1.761,0.385C303.78,182.666,303.509,182.363,303.22,182.184z"/>
	<path fill-rule="evenodd" clip-rule="evenodd" fill="#FCFDFB" d="M651.859,252.054c0.74,0,2.09,0.146,3.399-0.025
		c6.861-0.896,7.166-0.6,6.063,6.479c-0.153,0.986-0.581,1.984-0.504,2.945c0.579,7.121-3.825,10.561-9.312,13.744
		c-5.677,3.295-11.191,3.721-17.156,1.311c-6.038-2.441-7.994-11.854-3.378-16.568C634.687,256.144,645.634,251.882,651.859,252.054
		z"/>
	<path fill-rule="evenodd" clip-rule="evenodd" fill="#FCFDFB" d="M503.502,251.048c-0.09-10.668,2.275-19.346,7.85-27.035
		c2.559-3.531,5.66-6.32,10.425-5.281c6.538,1.422,14.008,1.813,15.961,10.207c3.012,12.945,4.115,25.99,0.813,39.088
		c-1.854,7.361-7.281,12.309-14.379,13.193c-6.551,0.816-12.006-2.664-16.207-8.799
		C503.129,265.362,505.086,257.313,503.502,251.048z"/>
	<path fill-rule="evenodd" clip-rule="evenodd" fill="#FCFDFB" d="M497.065,246.106c-1.145,5.271,0.883,10.344,0.354,15.922
		C494.731,256.394,493.993,251.204,497.065,246.106z"/>
	<path fill-rule="evenodd" clip-rule="evenodd" fill="#FCFDFB" d="M498.735,236.753c-0.159,1.955-0.317,3.912-0.476,5.869
		C496.461,240.513,497.239,238.612,498.735,236.753z"/>
	<path fill-rule="evenodd" clip-rule="evenodd" fill="#E9F4E1" d="M286.315,156.136c-3.433-0.759-5.564-1.776-7.797-4.209
		C281.908,152.1,284.043,153.11,286.315,156.136z"/>
	<path fill-rule="evenodd" clip-rule="evenodd" fill="#FCFDFB" d="M594.522,285.72c-3.174-0.119-5.785,0.41-8.306-0.844
		C588.833,283.884,591.426,283.815,594.522,285.72z"/>
	<path fill-rule="evenodd" clip-rule="evenodd" fill="#F9B425" d="M576.487,285.95c-0.902-0.086-2.552-0.063-2.585-0.277
		c-0.188-1.26,0.943-0.592,1.516-0.695c0.403-0.074,0.866,0.184,1.303,0.293C576.643,285.497,576.565,285.724,576.487,285.95z"/>
	<path fill-rule="evenodd" clip-rule="evenodd" fill="#F9B425" d="M430.621,249.833c-0.37-0.561-0.762-0.895-0.794-1.26
		c-0.058-0.67,0.262-1.318,1.068-1.096c0.282,0.078,0.564,0.748,0.549,1.135C431.43,248.96,431.007,249.292,430.621,249.833z"/>
	<path fill-rule="evenodd" clip-rule="evenodd" fill="#FCFDFB" d="M176.797,219.62c5.022-17.225,10.044-34.45,15.067-51.675
		c15.191,13.981,26.581,30.146,29.439,51.218c0.738,5.439-0.537,10.244-4.381,14.254c-2.074,2.162-4.342,4.154-6.277,6.434
		c-7.807,9.193-16.658,6.994-27.193,0.109c-1.665-1.088-1.238-2.178,0.152-3.047c7.146-4.469,8.816-11.699,9.814-19.283
		c0.147-1.119,0.943-2.402-0.115-3.293c-1.177-0.99-2.531-0.299-3.712,0.301c-4.513,2.291-7.138,6.361-9.711,10.459
		c-0.792,1.26-1.479,2.586-2.214,3.881c-0.605,0.357-1.239,0.42-1.902,0.188C176.108,225.983,176.452,222.802,176.797,219.62z"/>
	<path fill-rule="evenodd" clip-rule="evenodd" fill="#C1E2A9" d="M175.763,229.165c0.634-0.063,1.269-0.125,1.902-0.188
		c-0.187,0.82-0.66,1.625-1.457,1.617C175.339,230.587,175.525,229.778,175.763,229.165z"/>
	<path fill-rule="evenodd" clip-rule="evenodd" fill="#ADD88C" d="M345.615,112.577c1.194,2.604,1.384,5.224,0.262,8.923
		C344.166,117.846,344.873,115.211,345.615,112.577z"/>
	<path fill-rule="evenodd" clip-rule="evenodd" fill="#E9F4E1" d="M390.807,156.32c-0.514,0.628-0.724,1.09-1.078,1.274
		c-0.638,0.333-1.309,0.107-1.537-0.565c-0.087-0.255,0.358-0.965,0.639-1.012C389.362,155.927,389.949,156.165,390.807,156.32z"/>
	<path fill-rule="evenodd" clip-rule="evenodd" fill="#9AD073" d="M345.851,138.362c0.131,0.319,0.481,0.746,0.397,1.055
		c-0.185,0.68-0.296,1.583-1.294,1.556c-0.103-0.003-0.277-0.843-0.251-1.284C344.74,139.09,344.784,138.385,345.851,138.362z"/>
	<path fill-rule="evenodd" clip-rule="evenodd" fill="#9AD073" d="M381.285,143.917c-0.796-1.052-0.902-2.092-0.171-3.123
		C382.087,141.806,381.47,142.881,381.285,143.917z"/>
	<path fill-rule="evenodd" clip-rule="evenodd" fill="#FCFDFB" d="M424.058,110.833c6.75-0.089,13.104,7.822,11.656,14.441
		c-0.475,2.171-2.14,2.369-3.793,2.385c-6.8,0.068-13.603-0.023-20.402,0.072c-2.943,0.041-3.718-1.215-3.317-3.992
		C409.457,115.014,414.354,110.959,424.058,110.833z"/>
	<path fill-rule="evenodd" clip-rule="evenodd" fill="#ADD88C" d="M503.476,137.635c-0.696-3.67-0.696-3.67,0.147-6.563
		C504.973,133.115,504.783,134.735,503.476,137.635z"/>
	<path fill-rule="evenodd" clip-rule="evenodd" fill="#C1E2A9" d="M509.593,155.934c0.544,0.127,1.49-0.179,1.345,0.766
		c-0.062,0.404-0.875,0.832-1.421,0.987c-0.617,0.176-1.397,0.018-1.367-0.855C508.18,155.995,508.964,156.011,509.593,155.934z"/>
	<path fill-rule="evenodd" clip-rule="evenodd" fill="#9AD073" d="M505.138,127.202c-0.819,0.764-1.122,1.045-1.425,1.327
		c-0.252-0.299-0.752-0.655-0.698-0.884c0.085-0.366,0.488-0.813,0.847-0.915C504.169,126.641,504.602,126.985,505.138,127.202z"/>
	<path fill-rule="evenodd" clip-rule="evenodd" fill="#C1E2A9" d="M471.708,156.355c-0.552,0.616-0.781,1.059-1.142,1.234
		c-0.638,0.313-1.297,0.092-1.564-0.56c-0.084-0.203,0.379-0.885,0.658-0.93C470.206,156.013,470.798,156.22,471.708,156.355z"/>
	<path fill-rule="evenodd" clip-rule="evenodd" fill="#9AD073" d="M464.639,143.283c-0.32,0.475-0.504,1.071-0.82,1.152
		c-0.884,0.227-1.078-0.519-0.995-1.147c0.044-0.339,0.521-0.859,0.807-0.862C463.938,142.421,464.251,142.928,464.639,143.283z"/>
	<path fill-rule="evenodd" clip-rule="evenodd" fill="#C1E2A9" d="M464.259,135.935c-0.891-1.296-0.878-2.677-0.256-4.206
		C465.074,133.135,464.363,134.529,464.259,135.935z"/>
	<path fill-rule="evenodd" clip-rule="evenodd" fill="#FCFDFB" d="M238.005,299.634c-2.156,0-3.13,0-4.104,0
		c0.309-0.979,1.118-0.336,1.675-0.473C235.958,299.067,236.42,299.304,238.005,299.634z"/>
</g>
</svg>
