<?xml version="1.0" encoding="utf-8"?>
<!-- Generator: Adobe Illustrator 19.2.1, SVG Export Plug-In . SVG Version: 6.00 Build 0)  -->
<svg version="1.1" id="Camada_1" xmlns="http://www.w3.org/2000/svg" xmlns:xlink="http://www.w3.org/1999/xlink" x="0px" y="0px"
	 viewBox="0 0 151.1 35.7" style="enable-background:new 0 0 151.1 35.7;" xml:space="preserve">
<style type="text/css">
	.st0{fill:#6FBE44;}
	.st1{fill:#FFFFFF;}
	.st2{fill:none;}
</style>
<polygon class="st0" points="14,17.6 11.1,16.8 3.6,16.8 1.3,13.5 0.4,15.8 2,18.2 4.2,19 8,19.2 13.1,18 "/>
<polygon class="st0" points="25.7,11.5 28.1,10.4 29.4,8.9 30,6 29,3.8 26.6,2.8 24.2,2.9 22,4.8 20.3,7.7 19.9,9.2 20.8,9.8 "/>
<polygon class="st0" points="31.9,23.4 33.3,21.5 32.5,17.6 29.7,16.2 24.6,16 22.4,16.5 22,18.2 31.5,23.4 "/>
<polygon class="st0" points="147.1,8 147.3,9.4 148.1,9.5 149.2,9.4 149,7.7 148.2,7.5 147.3,7.7 "/>
<polygon class="st0" points="146.1,10 147.5,11.2 149.2,11.1 150.8,9.7 150.8,7.7 150,6.7 148.6,5.9 146.9,6.2 145.9,7.7 145.9,9.4 
	"/>
<polygon class="st0" points="147.3,8 147.1,8.9 147.3,9.4 148.3,9.5 149.1,9 149.2,8.1 148.9,7.5 148,7.5 "/>
<polygon class="st0" points="109.5,30.5 109.6,31.6 110.5,32.1 111.5,31.9 111.7,30.8 111.5,29.9 110.7,29.5 109.8,29.6 "/>
<polygon class="st0" points="66.2,30.5 66.2,31.5 67,32.1 68.1,32.2 68.4,31.5 68.4,30.5 68.2,29.7 67.1,29.5 66.4,29.9 "/>
<polygon class="st0" points="43.4,30 43.3,31.3 43.9,32.1 44.8,32.1 45.5,31.5 45.6,30.6 45.4,29.8 44.9,29.4 43.8,29.6 "/>
<polygon class="st0" points="88.2,13.9 87.5,14.8 87.3,16.2 87.7,18 89.1,19.7 91.8,20.3 94,19.1 94.7,17.4 95,15 94,13 91.3,11.8 
	89.6,12.1 87.8,13.5 "/>
<path class="st0" d="M117,12.3c-2.3-0.4-3.5,0.6-3.6,2.7c-0.1,2-0.1,4.1,0,6.1c0.1,1.1-0.5,1.1-1.3,1.1s-1.2,0-1.2-1
	c0.1-3.5,0-7,0-10.4c0-0.4-0.2-0.9,0.3-1c0.7-0.1,1.6-0.4,2,0.1s0.5,0.3,0.9,0.2c0.7-0.3,1.4-0.4,2.1-0.4c3.4,0,6.9,0,10.3,0
	c1.2,0,0.9,0.7,0.9,1.3c0,0.7,0.1,1.3-0.9,1.2c-1.6-0.1-3.2-0.1-4.8,0c-1.8,0.1-3.2,1.5-3.4,3.3c-0.2,2,0.8,3.7,2.7,4.1
	c1.9,0.5,3.9-1.2,4.1-3.5c0.1-0.8,0.1-1.6,0-2.4c-0.1-1,0.5-1,1.2-0.9c0.6,0,1.3-0.3,1.3,0.9c-0.1,2.6,0,5.1,0,7.7
	c0,0.4,0.2,0.9-0.5,0.8c-0.6-0.1-1.6,0.4-1.8-0.3c-0.2-0.9-0.6-0.5-0.9-0.3c-2.7,1.2-5.6,0.5-7.2-1.9c-1.4-2.1-1.4-4.4-0.4-6.6
	C116.8,12.8,116.9,12.5,117,12.3z"/>
<path class="st0" d="M62.7,21c-1.5,0.9-2.9,1.3-4.6,0.9c-2.9-0.8-4.8-3.5-4.4-6.8c0.4-3.2,2.7-5.4,5.8-5.4c1.6,0,3.1,0.1,4.7,0
	c1.1-0.1,0.8,0.7,0.9,1.3c0,0.6,0.2,1.3-0.9,1.2c-1.6-0.1-3.1-0.1-4.7,0c-1.7,0.1-2.9,1.1-3.3,2.8c-0.4,1.6,0.2,3.3,1.5,4.1
	c1.9,1.3,4.4,0.1,5-2.3c0.2-1,0.2-2.1,0.1-3.1c-0.1-1,0.6-0.8,1.2-0.8s1.2-0.2,1.2,0.8c-0.1,3.3,0,6.6,0,10c0,1.4-0.8,2.2-2.3,2.2
	c-2,0-3.9,0-5.9,0c-1.1,0-0.9-0.6-0.9-1.2s-0.2-1.3,0.9-1.3c1.3,0.1,2.6,0,3.8,0C62.7,23.3,62.8,23.3,62.7,21z"/>
<path class="st0" d="M101.3,12.1c-1-0.1-2.3,0.4-3-0.2c-0.7-0.7-0.2-2.1-0.2-3.2c0-0.6,0.1-1.1,0-1.7c-0.2-1.2,0.3-1.5,1.5-1.4
	c0.7,0.1,1,0.2,1,1c0,1-0.6,2.3,0.3,2.9c0.7,0.5,1.9,0.1,2.9,0.1c2.9,0,5,1.5,6,4.1c0.9,2.4,0.2,5.2-1.7,6.9
	c-1.7,1.5-3.7,1.9-5.8,1.1c-2.3-0.8-3.6-2.4-4.1-4.8c-0.2-1.2-0.2-2.4-0.1-3.6s1-0.5,1.6-0.7c0.5-0.1,0.9,0,0.9,0.7
	c0,0.8,0,1.7,0,2.5c0.2,2.2,1.7,3.8,3.7,3.7c2-0.1,3.4-1.7,3.5-3.7c0-2.1-1.4-3.7-3.5-3.9C103.2,12,102.3,12.1,101.3,12.1z"/>
<path class="st0" d="M45.9,12.1c-1,0.1-2.2-0.1-3.3,0.2c-1.9,0.5-2.9,2.2-2.7,4.1c0.3,2,1.7,3.2,3.6,3.2c1.9,0,3.3-1.3,3.5-3.3
	c0.1-0.9,0.1-1.9,0.1-2.9c0-0.5,0.2-0.8,0.7-0.7c0.6,0.1,1.5-0.5,1.6,0.5c0.2,1.6,0.2,3.3-0.4,4.8c-1.1,3-4.6,4.6-7.5,3.5
	c-3-1.2-4.7-4.9-3.5-7.9c1-2.6,3.1-4.1,5.9-4.1c1,0,2.3,0.4,3-0.2c0.7-0.6,0.2-1.9,0.2-2.9c0-1.1,0.6-0.9,1.3-0.9
	c0.6,0,1.2-0.1,1.1,0.9c-0.1,1.6,0,3.2,0,4.8c0,0.6-0.2,0.8-0.8,0.8C47.8,12.1,46.9,12.1,45.9,12.1z"/>
<path class="st0" d="M77.5,10.8c2.4-1.2,4.3-0.7,5.8,1.3c0.8,1,1,2.3,1,3.5c0.1,1.9,0,3.8,0,5.6c0,1-0.6,0.9-1.2,0.9
	s-1.2,0.2-1.2-0.8c0.1-1.1,0-2.2,0-3.4c0-0.7,0-1.4,0-2.2c-0.1-1.6-1-2.8-2.2-2.9s-2.2,1.1-2.3,2.7c-0.1,1.8-0.1,3.7,0,5.5
	c0,1.1-0.6,1-1.3,1c-0.7,0-1.2,0.1-1.2-0.9c0.1-4.8,0.1-9.7,0-14.5c0-1,0.6-0.9,1.2-0.8c0.6,0,1.4-0.3,1.3,0.8
	C77.4,7.9,77.5,9.3,77.5,10.8z"/>
<path class="st0" d="M133.8,9.6c0.5,0,1,0.1,1.6,0c1.1-0.1,1.4,0.2,1.4,1.4c0,0.9-0.2,1.2-1.1,1.1c-1.2-0.1-2.4,0-3.6,0
	c-0.2,0-0.4,0-0.5,0.2c-0.1,0.3,0.2,0.4,0.5,0.4c1,0.1,2,0.2,3,0.4c2.6,0.6,3.8,2.3,3.6,4.9c-0.3,2.7-1.9,4.1-4.6,4.2
	c-2.3,0-4.1-1-4.9-2.8c-0.2-0.5-0.7-1.2,0-1.4c0.7-0.2,1.6-0.5,2.3,0.4c0.8,1.2,1.8,1.6,3.2,1.3c1-0.2,1.6-0.9,1.7-1.9
	c0-1-0.5-1.8-1.5-2c-1-0.2-2-0.3-2.9-0.5c-2-0.3-2.8-1.3-2.6-3.2c0.1-1.6,1.1-2.4,3-2.4C132.6,9.6,133.2,9.6,133.8,9.6L133.8,9.6z"
	/>
<path class="st0" d="M70.3,17.1c0-1.4,0-2.8,0-4.2c0-0.4,0-0.8-0.6-0.8c-1-0.1-0.5-0.9-0.6-1.4c-0.1-0.4-0.2-1.1,0.6-1.1
	c0.5,0,0.5-0.3,0.5-0.6c0-0.6,0-1.2,0-1.8c0-1.4,0.6-1.8,2-1.5c0.4,0.1,0.4,0.3,0.4,0.6c0,0.7,0,1.4,0,2c0,0.7-0.1,1.3,1,1.3
	c0.8,0,0.4,0.7,0.4,1.1c0,0.4,0.4,1.2-0.4,1.2c-1.1,0-1,0.6-1,1.3c0,2.5,0,5,0,7.5c0,0.9-0.2,1.3-1.2,1.2c-0.9,0-1.3-0.2-1.2-1.2
	C70.4,19.7,70.3,18.4,70.3,17.1z"/>
<path class="st0" d="M142.7,13.8c0-2.4,0-4.9,0-7.3c0-0.9,0.4-1,1.1-0.9c0.6,0,1.3-0.1,1.3,0.9c0,4.9,0,9.8,0.1,14.8
	c0,1.1-0.7,0.8-1.3,0.9c-0.6,0-1.2,0.2-1.1-0.8C142.8,18.8,142.7,16.3,142.7,13.8z"/>
<path class="st0" d="M141.8,17.4c0,1.3,0,2.6,0,4c0,1.1-0.7,0.7-1.2,0.7s-1.2,0.3-1.2-0.7c0-2.6,0-5.3,0-7.9c0-1.1,0.8-0.7,1.3-0.7
	s1.2-0.3,1.2,0.7C141.7,14.8,141.8,16.1,141.8,17.4z"/>
<path class="st0" d="M52.7,17.4c0,1.3,0,2.5,0,3.8c0,0.9-0.4,0.9-1,0.8c-0.5-0.1-1.4,0.4-1.4-0.8c0-2.6,0-5.2,0-7.8
	c0-1.2,0.8-0.7,1.3-0.8c0.6-0.1,1.1-0.1,1.1,0.8C52.7,14.8,52.7,16.1,52.7,17.4z"/>
<path class="st0" d="M68.3,17.4c0,1.3,0,2.6,0,3.8c0,1.1-0.8,0.7-1.3,0.8c-0.6,0.1-1.1,0.1-1.1-0.8c0.1-2.6,0-5.2,0-7.8
	c0-1,0.6-0.7,1.1-0.7s1.3-0.3,1.3,0.7C68.2,14.8,68.3,16.1,68.3,17.4z"/>
<path class="st0" d="M151.1,8.7c0,1.7-1.2,2.9-2.8,2.9s-2.9-1.4-2.8-3c0-1.6,1.3-3,2.8-3C149.8,5.6,151.1,7,151.1,8.7z"/>
<path class="st0" d="M94.9,30.9c-0.4,0.5-0.2,1.5-0.8,1.5c-0.7,0-0.4-1.1-0.9-1.5c0,0.1-0.1,0.2-0.1,0.3c-0.3,0.4,0.1,1.4-0.6,1.3
	c-0.5-0.1,0-0.9,0-1.4c0-0.4,0.1-0.8,0.2-1.2c0.1-0.3,0-0.7,0.4-0.7s0.4,0.4,0.5,0.7c0.1,0.4,0.3,0.8,0.5,1.5
	c0.3-0.8,0.4-1.3,0.6-1.8c0.1-0.2,0.1-0.4,0.4-0.4s0.4,0.2,0.4,0.5c0.1,0.8,0.2,1.6,0.4,2.4c0,0.2,0.1,0.5-0.2,0.5
	c-0.2,0-0.3-0.2-0.4-0.4C95.1,31.7,95.2,31.3,94.9,30.9z"/>
<path class="st0" d="M127.5,30.8c0-0.2,0-0.4,0.1-0.5c0.3-0.4-0.1-1.3,0.6-1.2c0.5,0.1-0.1,0.8,0,1.2c0,0.1,0,0.2-0.1,0.2
	c-0.3,0.6,0,1.7-0.7,1.8c-0.8,0.1-0.4-1.1-0.9-1.5c-0.3,0.1-0.2,0.3-0.3,0.5c-0.2,0.4,0,1.2-0.6,1.1c-0.5-0.1-0.4-0.8-0.5-1.2
	c-0.1-0.5-0.2-1.1-0.3-1.6c0-0.2-0.2-0.4,0.1-0.5c0.3-0.1,0.4,0.1,0.5,0.4c0.1,0.4,0.2,0.9,0.3,1.3c0.1,0,0.1-0.1,0.2-0.1
	c0.3-0.5,0.1-1.5,0.7-1.5C127.4,29.2,126.9,30.4,127.5,30.8z"/>
<path class="st0" d="M112.2,30.8c0,1-0.7,1.8-1.7,1.8c-0.9,0-1.7-0.9-1.7-1.9c0-0.9,0.8-1.7,1.6-1.7C111.5,29,112.2,29.8,112.2,30.8
	z"/>
<path class="st0" d="M67.4,32.6c-0.9,0-1.7-0.8-1.7-1.8s0.8-1.8,1.7-1.8c0.9,0,1.6,0.8,1.6,1.7C69,31.8,68.3,32.6,67.4,32.6z"/>
<path class="st0" d="M68.2,10.9c0.3,1.1-0.3,1.2-1.2,1.2c-1.2,0.1-1.1-0.6-1.1-1.4c-0.1-1,0.3-1.1,1.2-1.2
	C68.1,9.6,68.5,9.9,68.2,10.9z"/>
<path class="st0" d="M141.7,10.8c0.3,1.1-0.3,1.2-1.2,1.3c-1.1,0.1-1.2-0.4-1.2-1.3c0-1,0.3-1.3,1.3-1.3
	C141.7,9.5,142,9.9,141.7,10.8z"/>
<path class="st0" d="M51.5,12.1c-0.3-0.2-1,0.4-1-0.5c0-1.4,0.4-2,1.7-1.9c0.3,0,1-0.5,1,0.5C53.2,11.6,52.8,12.1,51.5,12.1z"/>
<path class="st0" d="M46.1,30.8c0,1-0.8,1.8-1.7,1.8s-1.6-0.9-1.6-1.9s0.7-1.7,1.6-1.7C45.4,29,46.1,29.8,46.1,30.8z"/>
<path class="st0" d="M138.4,31.2c0,0.5,0,0.7,0,0.9s-0.1,0.4-0.4,0.3c-0.1,0-0.3-0.2-0.3-0.3c0-0.9-0.1-1.8,0-2.7
	c0.1-0.6,0.8-0.3,1.2-0.3c0.6,0.1,0.8,0.7,0.6,1.2c-0.3,0.6-0.4,1.1,0,1.7c0.1,0.1,0.2,0.3,0,0.4c-0.1,0-0.4,0-0.4-0.1
	C138.9,32.1,138.8,31.8,138.4,31.2z"/>
<path class="st0" d="M134.4,32.2c0,0.1-0.1,0.2-0.1,0.3c-0.1,0-0.4,0-0.4-0.1c-0.6-0.8-1.2-0.9-1.8,0c-0.1,0.1-0.3,0.2-0.4,0.1
	c-0.3-0.1-0.1-0.3-0.1-0.5c0.3-0.8,0.6-1.6,0.9-2.5c0.2-0.5,0.6-0.7,0.8-0.1C133.8,30.3,134.1,31.2,134.4,32.2z"/>
<path class="st0" d="M88,30c0.1,0.4,0.4,0.3,0.6,0.3c0.3,0,0.5,0.1,0.5,0.4s-0.3,0.2-0.5,0.3c-0.3,0-0.7-0.1-0.6,0.5
	c0,0.5,0.4,0.4,0.7,0.4c0.2,0,0.4,0.1,0.4,0.3c0,0.3-0.3,0.3-0.4,0.3c-0.9,0.1-1.5,0-1.3-1.1c0.1-0.4,0-0.9,0-1.3
	c0-0.9,0.8-1.4,1.6-1c0.1,0,0.2,0.1,0.2,0.2c0.1,0.2,0,0.3-0.2,0.4C88.6,29.9,88.3,29.7,88,30z"/>
<path class="st0" d="M143.7,30.1c0.1,0.3,0.4,0.2,0.5,0.2c0.2,0,0.5,0,0.5,0.3c0,0.4-0.3,0.3-0.5,0.3c-0.3,0-0.6-0.1-0.6,0.4
	s0.2,0.5,0.6,0.5c0.2,0,0.5,0,0.5,0.4c-0.1,0.3-0.4,0.2-0.6,0.3c-0.8,0.1-1.3,0-1.2-1c0.1-0.6,0-1.2,0-1.8c0-0.3,0-0.6,0.4-0.6
	c0.5,0,1.2-0.3,1.3,0.2C145,30.2,143.9,29.5,143.7,30.1z"/>
<path class="st0" d="M60.6,32.5c-1-0.6-1.4-1.5-0.9-2.4c0.4-0.8,1.4-1.2,2.2-0.9c0.3,0.1,0.7,0.2,0.6,0.6c-0.2,0.5-0.5,0.2-0.8,0.1
	c-0.5-0.2-1-0.2-1.4,0.4c-0.3,0.4-0.3,0.9,0,1.3s0.8,0.5,1.3,0.4c0.3-0.1,0.6-0.5,0.8-0.1c0.2,0.5-0.3,0.6-0.7,0.7
	C61.3,32.6,61,32.7,60.6,32.5z"/>
<path class="st0" d="M54.1,30.5c0.2-0.4-0.3-1.3,0.3-1.3s0.2,0.9,0.3,1.4c0.1,0.3,0,0.6,0,0.8c0,0.2,0.2,0.5,0.5,0.4
	c0.3,0,0.4-0.2,0.4-0.5c0-0.6,0-1.2,0-1.8c0-0.2,0-0.5,0.3-0.5s0.3,0.3,0.3,0.5c0,0.6,0,1.1,0,1.7c0,0.7-0.3,1.3-1.1,1.3
	S54,32,54,31.2C54.1,31.1,54.1,30.9,54.1,30.5z"/>
<path class="st0" d="M104.6,29.9c0.4,0.4,0.7,0.7,1,1.1s0.3,0.9-0.1,1.3c-0.4,0.4-0.9,0.4-1.3,0.1c-0.2-0.1-0.4-0.3-0.3-0.6
	c0.1-0.3,0.4-0.2,0.6,0s0.4,0.2,0.6,0c0.1-0.2-0.1-0.4-0.2-0.5c-0.2-0.2-0.5-0.4-0.7-0.7c-0.2-0.3-0.4-0.6-0.2-1
	c0.2-0.5,0.6-0.6,1.1-0.5c0.2,0.1,0.5,0.2,0.5,0.4C105.5,30.2,104.9,29.5,104.6,29.9z"/>
<path class="st0" d="M72.9,30.1c0.1,0.3,0.4,0.3,0.6,0.3s0.5,0,0.5,0.4c0,0.3-0.2,0.3-0.4,0.3c-0.3,0-0.7-0.1-0.7,0.4
	c0,0.6,0.4,0.5,0.8,0.5c0.2,0,0.4,0.1,0.3,0.4c0,0.2-0.2,0.2-0.4,0.2c-1,0.2-1.3,0-1.3-1.1c0-0.6,0-1.1,0-1.7c0-0.3,0-0.7,0.5-0.6
	c0.4,0.1,1.1-0.3,1.2,0.3C74.1,30.1,73.2,29.5,72.9,30.1z"/>
<path class="st0" d="M38.4,29.9c0.4,0.5,0.8,0.8,1.1,1.2c0.3,0.4,0.3,0.8-0.1,1.2c-0.3,0.3-0.7,0.5-1.2,0.2
	c-0.3-0.1-0.5-0.3-0.4-0.6c0.1-0.4,0.4-0.2,0.7,0c0.2,0.1,0.4,0.1,0.5-0.1s0-0.4-0.2-0.5c-0.2-0.3-0.5-0.5-0.7-0.8
	c-0.3-0.4-0.3-0.8,0-1.2c0.3-0.3,0.7-0.3,1.1-0.2c0.2,0.1,0.5,0.3,0.3,0.5C39.2,30.2,38.8,29.6,38.4,29.9z"/>
<path class="st0" d="M77.8,29.8c0.5,0.5,0.8,0.9,1.1,1.3c0.3,0.5,0.2,0.9-0.2,1.3c-0.4,0.3-0.8,0.3-1.2,0c-0.2-0.1-0.4-0.3-0.3-0.6
	c0.1-0.3,0.4-0.2,0.6-0.1s0.4,0.2,0.5,0c0.2-0.2,0-0.4-0.2-0.6c-0.2-0.3-0.5-0.5-0.7-0.8c-0.3-0.4-0.3-0.8,0.1-1.2
	c0.3-0.3,0.7-0.3,1.1-0.1c0.2,0.1,0.4,0.3,0.3,0.5C78.6,30.1,78.2,29.6,77.8,29.8z"/>
<path class="st0" d="M116.2,30c0.1,0.4,0.4,0.3,0.6,0.3s0.4,0.2,0.3,0.4c0,0.2-0.2,0.2-0.3,0.2c-0.4,0-0.6,0.1-0.6,0.5
	c0,0.3,0.3,1-0.4,0.9c-0.4-0.1-0.2-0.7-0.2-1.1c0-0.6,0-1.1,0-1.7c0-0.3,0-0.6,0.4-0.6s1-0.3,1.1,0.3C117.2,30,116.4,29.6,116.2,30z
	"/>
<path class="st0" d="M121,29.1c0.7,0,1.4-0.1,0.5,0.8c-0.4,0.5-0.1,1.3-0.1,2c0,0.3,0,0.6-0.4,0.6s-0.3-0.4-0.3-0.6
	c-0.2-0.8,0.2-1.5-0.4-2.3C119.8,29,120.8,29.3,121,29.1z"/>
<path class="st0" d="M49.4,30.6c0.1-0.4-0.3-1.4,0.3-1.4c0.8,0,0.2,1,0.4,1.6c0.1,0.4-0.2,0.8,0.2,1.1c0.2,0.1,0.7,0,0.5,0.4
	c-0.1,0.3-0.5,0.2-0.7,0.2c-0.3,0-0.7,0-0.7-0.5C49.4,31.6,49.4,31.2,49.4,30.6z"/>
<path class="st0" d="M67.3,28.2c0.2,0.3,0.9-0.2,0.9,0.4c0,0.5-0.5,0.4-0.9,0.3c-0.3,0-0.8,0.1-0.7-0.4C66.6,28.1,67,28.2,67.3,28.2
	z"/>
<path class="st0" d="M60.6,32.5c0.4,0,0.7,0,1.1,0c-0.3,0.2,0,1-0.7,0.9C60.3,33.3,61.1,32.6,60.6,32.5z"/>
<path class="st0" d="M24.3,20.2c0.1,0.2,0.2,0.3,0.2,0.5c-0.2,0.3-0.3,0.6-0.5,1c-0.2,0-0.4,0-0.3-0.3C24,21.1,24.2,20.6,24.3,20.2z
	"/>
<path class="st0" d="M19.4,16.2c1.5,0.4,2.9-0.2,4.3-0.4c1.9-0.2,3.9-0.5,5.8-0.3c2.2,0.2,3.7,1.4,4.2,3.3c0.6,1.9-0.2,4.1-1.9,5.4
	c-1.5,1.2-3.4,1.4-5.2,0.4c-0.4-0.2-0.8-0.5-1.1-0.8c-0.1-0.2,0-0.3,0.2-0.2c0.7,0.2,1.3,0.7,2.1,0.7c0.4,0,0.8,0.1,1.2,0.1
	c0.3,0,0.5-0.1,0.9-0.2c-0.5,0.1-0.7,0.2-1,0.2c-0.4,0-0.8,0-1.2-0.3c-2.6-1.2-4.6-3.1-7-4.6c-0.7-0.4-1.4-1.1-2.4-1.2
	c0.1,0.7,0.5,1.2,0.8,1.7c1.5,2.3,3.1,4.6,4.1,7.2c0.6,1.5,1.1,3,0.8,4.6c-0.4,2.3-2.4,3.9-4.5,3.8s-3.7-1.8-3.8-4.3
	c-0.1-1.8,0.2-3.6,0.4-5.4c0-0.7,0.1-1.3,0.1-2c0.5,0.1,0.2,0.6,0.3,0.9c0.1,1.4-0.1,2.8,0.1,4.2c0.1,1,0.1,2.1,0.4,3.1
	c0.5,1.8,1.6,2.7,3.3,2.5c1.7-0.2,3.1-1.6,3.2-3.3c0.1-0.9-0.1-1.7-0.4-2.6c-1-2.9-2.5-5.5-4.6-7.8c-0.6-0.6-1.3-1.2-2.1-1.5
	c-1.1-0.1-2.1-0.3-3.1-0.8c-1.3-0.1-2.5,0.4-3.7,0.7c-1.5,0.4-3,0.7-4.6,0.5c-2.7-0.1-5.1-2.8-5-5.5c0.2-3.3,3.2-5.2,6.2-3.7
	c1.8,0.9,3.5,2.2,5.3,3.2c0.9,0.5,1.7,1,2.8,1.3c-0.1-0.6-0.5-1-0.7-1.4c-1.3-2-2.8-4-3.7-6.3C9.4,6.2,9.1,5,9.4,3.7
	C9.8,1.4,11.5,0,13.6,0C16,0,18,1.7,18.5,3.9c0.2,1.2,0.1,2.3,0,3.4c-0.6-0.1-0.2-0.6-0.3-0.8c-0.1-0.4,0.1-0.8-0.1-1.2
	c-0.1-0.6-0.2-1.2-0.5-1.7c-0.8-1.8-2.6-2.8-4.4-2.4c-1.9,0.5-3.3,2.1-2.9,4.1c0.8,4.3,3,7.6,6.6,10.1
	C17.8,15.5,18.6,15.8,19.4,16.2z"/>
<path class="st0" d="M19.4,16.2c-0.9,0-1.7-0.3-2.4-0.8c1.1-1.8,1.6-3.8,2.4-5.8c0.6-1.7,1.3-3.4,2.4-4.9C23,3.1,24.5,2,26.6,2.2
	c3.3,0.4,4.8,4.4,2.8,7.3c-0.7,1-1.6,1.6-2.7,2.2C24.1,12.9,21.5,14.2,19.4,16.2z"/>
<path class="st0" d="M13.5,18.7c1.1,0,2.2,0.2,3.1,0.8C14.9,22.1,14,25.1,13,28c-0.7,2.1-2.1,3.5-4.3,4c-1.6,0.3-3.2-0.3-4.1-1.7
	c-0.9-1.3-1-2.7-0.3-4.4c0.3,3.9,2.3,5.7,5.1,4.8c0.2-0.4,0.7-0.5,1-0.7c0.9-0.7,1.4-1.6,1.8-2.6c0-0.1,0.1-0.1,0.1-0.2
	c0,0.1,0,0.1-0.1,0.2c-0.5,1-0.9,2-1.9,2.7c-0.4,0.2-0.8,0.4-1.2,0.5c-2,0.1-3.2-0.5-3.9-1.9c-0.7-1.5-0.4-3.1,0.8-4.5
	c1-1.1,2.3-1.9,3.6-2.7C11,20.4,12.3,19.7,13.5,18.7z"/>
<path class="st0" d="M16.8,29c-0.4-1-0.1-2.1-0.2-3.1c-0.1-0.6,0.2-1.3-0.2-1.9c0-0.2-0.1-0.4,0.2-0.7C16.9,25.3,16.8,27.1,16.8,29z
	"/>
<path class="st0" d="M18.1,5.2c0.5,0.6-0.1,1.4,0.3,2.1c0,0.2,0.1,0.5-0.3,0.6C18.1,7,18.1,6.1,18.1,5.2z"/>
<path class="st1" d="M10.6,30c-0.3,0.3-0.7,0.5-1.1,0.6c-0.1-0.1-0.2-0.2-0.3-0.2c0.4-0.2,0.7-0.4,1.1-0.6
	C10.4,29.9,10.5,29.9,10.6,30z"/>
<path class="st0" d="M28,24.2c0.4,0.1,0.8,0.1,1.3,0.2c0.1,0,0.1,0.1,0.1,0.1l-0.1,0.1c-0.4,0-0.9,0.1-1.3-0.1
	C28,24.3,28,24.3,28,24.2z"/>
<path class="st0" d="M18,9.6c-0.1-0.3-0.1-0.6,0.2-0.9C18.4,9.1,18.1,9.3,18,9.6z"/>
<path class="st0" d="M17.8,11c-0.1-0.3-0.2-0.6,0.1-0.6c0.3-0.1,0.2,0.3,0.1,0.4C18,10.9,17.9,11,17.8,11z"/>
<path class="st0" d="M25.9,23.7c-0.1,0.1-0.1,0.1-0.2,0.2c-0.3-0.1-0.5-0.2-0.6-0.6C25.4,23.3,25.6,23.5,25.9,23.7z"/>
<path class="st0" d="M12,18c-0.2-0.3-0.6-0.1-0.9-0.2c0.7-0.3,1.4-0.2,2.5-0.2C12.9,17.9,12.4,18.1,12,18z"/>
<path class="st0" d="M1.5,15.1c-0.3,0.1-0.1,0.4-0.2,0.6c-0.3-0.4-0.2-0.9,0-1.5C1.3,14.6,1.4,14.9,1.5,15.1z"/>
<path class="st0" d="M29.2,24.5c0-0.1,0-0.1,0-0.2c0.4-0.1,0.8-0.2,1.1-0.4C30.1,24.5,29.7,24.6,29.2,24.5z"/>
<path class="st0" d="M28.4,16.4c-0.5,0.3-1.1,0.3-1.6,0C27.3,16.4,27.8,16.4,28.4,16.4z"/>
<path class="st0" d="M22.1,5.2c0.1,0.1,0.2,0.2,0.2,0.2c-0.3,0.4-0.6,0.9-0.8,1.3c-0.1,0-0.2-0.1-0.2-0.2C21.5,6,21.7,5.6,22.1,5.2z
	"/>
<path class="st0" d="M20.8,8.2c0,0.4-0.1,0.7-0.5,1.1c0-0.5,0-0.8,0.4-1.1C20.7,8.2,20.7,8.2,20.8,8.2z"/>
<path class="st0" d="M20.8,8.2h-0.1c0-0.4,0.1-0.7,0.4-1.1c0.1,0,0.1,0.1,0.2,0.2C21.1,7.6,21,8,20.8,8.2z"/>
<path class="st0" d="M21.2,7.3c-0.1-0.1-0.1-0.1-0.2-0.2c0.1-0.2,0.2-0.4,0.3-0.6c0.1,0.1,0.1,0.2,0.2,0.2
	C21.4,6.9,21.3,7.1,21.2,7.3z"/>
<path class="st1" d="M10.6,30c-0.1-0.1-0.2-0.1-0.2-0.2c1-0.7,1.3-1.8,1.9-2.7c0.2,0,0.3,0.1,0.2,0.3C12,28.4,11.6,29.4,10.6,30z"/>
<path class="st0" d="M12.5,27.4c-0.1-0.1-0.1-0.2-0.2-0.3c0.1-0.2,0.1-0.5,0.4-0.6C12.7,26.8,12.7,27.1,12.5,27.4z"/>
<g>
	<path class="st0" d="M90.8,22.4c-3.2,0-5.7-2.9-5.7-6.3c0-3.3,2.8-6.1,6-6.1c3.1,0,5.7,2.9,5.7,6.2C96.8,19.8,94.2,22.4,90.8,22.4z
		"/>
	<path class="st2" d="M94.5,16.3c-0.1,2-1.8,3.7-3.8,3.6c-1.8-0.1-3.3-1.9-3.2-4c0.1-2,1.7-3.5,3.6-3.4S94.5,14.3,94.5,16.3z"/>
</g>
<path class="st0" d="M149.4,8.8c0.3,0.9-0.1,1.3-1.2,1.2c-0.9-0.1-1.4-0.5-1.5-1.4c0-1,0.6-1.6,1.8-1.6
	C149.4,7.1,149.4,7.1,149.4,8.8z"/>
</svg>
