<?xml version="1.0" encoding="utf-8"?>
<!-- Generator: Adobe Illustrator 19.2.1, SVG Export Plug-In . SVG Version: 6.00 Build 0)  -->
<svg version="1.1" id="Camada_1" xmlns="http://www.w3.org/2000/svg" xmlns:xlink="http://www.w3.org/1999/xlink" x="0px" y="0px"
	 viewBox="0 0 512 512" style="enable-background:new 0 0 512 512;" xml:space="preserve">
<style type="text/css">
	.st0{fill:#FFFFFF;}
</style>
<g id="icomoon-ignore">
</g>
<g>
	<path class="st0" d="M144,288h-32v224h32c8.8,0,16-7.2,16-16V304C160,295.2,152.8,288,144,288z"/>
	<path class="st0" d="M368,288c-8.8,0-16,7.2-16,16v192c0,8.8,7.2,16,16,16h32V288H368z"/>
	<path class="st0" d="M512,256C512,114.6,397.4,0,256,0S0,114.6,0,256c0,30.7,5.4,60.1,15.3,87.4C5.6,360,0,379.4,0,400
		c0,56.4,41.7,103.1,96,110.9V289.1c-16,2.3-30.8,7.9-43.9,16.2C49.4,292,48,278.2,48,264c0-114.9,93.1-208,208-208
		s208,93.1,208,208c0,14.2-1.4,28-4.1,41.3c-13-8.3-27.9-13.9-43.9-16.2v221.7c54.3-7.8,96-54.4,96-110.9c0-20.6-5.6-40-15.3-56.6
		C506.6,316.1,512,286.7,512,256L512,256z"/>
</g>
</svg>
